<?xml version="1.0" encoding="UTF-8"?>
<svg xmlns="http://www.w3.org/2000/svg" width="2160" height="2160" viewBox="0 0 2160 2160">
  <defs>
    <!-- Subtle grain filter -->
    <filter id="grain">
      <feTurbulence type="fractalNoise" baseFrequency="0.3" numOctaves="4" stitchTiles="stitch"/>
      <feColorMatrix type="matrix" values="0 0 0 0 0  0 0 0 0 0  0 0 0 0 0  0 0 0 0.08 0"/>
      <feBlend mode="multiply" in2="SourceGraphic"/>
    </filter>
  </defs>

  <!-- Background: Warm Ivory -->
  <rect width="100%" height="100%" fill="#FAF8F3"/>
  <rect width="100%" height="100%" fill="#FAF8F3" filter="url(#grain)" opacity="0.5"/>

  <!-- Decorative Frame -->
  <rect x="80" y="80" width="2000" height="2000" fill="none" stroke="#C9B99A" stroke-width="2"/>
  <!-- Inner frame with gap for footer -->
  <path d="M120 120 L2040 120 L2040 2040 L1360 2040" fill="none" stroke="#3D3D3D" stroke-width="4"/>
  <path d="M800 2040 L120 2040 L120 120" fill="none" stroke="#3D3D3D" stroke-width="4"/>
  
  <!-- Corner Ornaments -->
  <g fill="none" stroke="#3D3D3D" stroke-width="3">
    <path d="M160 160 L160 230 M160 160 L230 160"/>
    <circle cx="160" cy="160" r="6" fill="#3D3D3D"/>
    <path d="M2000 160 L2000 230 M2000 160 L1930 160"/>
    <circle cx="2000" cy="160" r="6" fill="#3D3D3D"/>
    <path d="M160 2000 L160 1930 M160 2000 L230 2000"/>
    <circle cx="160" cy="2000" r="6" fill="#3D3D3D"/>
    <path d="M2000 2000 L2000 1930 M2000 2000 L1930 2000"/>
    <circle cx="2000" cy="2000" r="6" fill="#3D3D3D"/>
  </g>

  <!-- Top Ornament -->
  <g transform="translate(1080, 210)">
    <line x1="-160" y1="0" x2="-50" y2="0" stroke="#3D3D3D" stroke-width="2"/>
    <circle cx="0" cy="0" r="10" fill="none" stroke="#3D3D3D" stroke-width="2"/>
    <circle cx="0" cy="0" r="4" fill="#3D3D3D"/>
    <line x1="50" y1="0" x2="160" y2="0" stroke="#3D3D3D" stroke-width="2"/>
  </g>

  <!-- Header -->
  <text x="1080" y="330" font-family="Georgia, 'Times New Roman', serif" font-size="60" letter-spacing="20" fill="#8C7B6B" text-anchor="middle">THE READING YEAR</text>
  <text x="1080" y="500" font-family="Georgia, 'Times New Roman', serif" font-size="200" font-weight="normal" letter-spacing="28" fill="#3D3D3D" text-anchor="middle">{{YEAR}}</text>

  <!-- Decorative Divider -->
  <g transform="translate(1080, 600)">
    <line x1="-320" y1="0" x2="-80" y2="0" stroke="#C9B99A" stroke-width="2"/>
    <path d="M-60 0 Q0 -24 60 0" fill="none" stroke="#3D3D3D" stroke-width="2"/>
    <line x1="80" y1="0" x2="320" y2="0" stroke="#C9B99A" stroke-width="2"/>
  </g>

  <!-- Hero Stat: Active Days -->
  <text x="1080" y="895" font-family="Georgia, 'Times New Roman', serif" font-size="400" font-weight="normal" letter-spacing="12" fill="#3D3D3D" text-anchor="middle">{{ACTIVE_DAYS}}</text>
  <text x="1080" y="1060" font-family="Georgia, 'Times New Roman', serif" font-size="88" font-style="italic" fill="#5D5D5D" text-anchor="middle">Days of Reading</text>
  
  <!-- Percentage -->
  <text x="1080" y="1200" font-family="Georgia, 'Times New Roman', serif" font-size="68" fill="#8C7B6B" text-anchor="middle">{{ACTIVE_PCT}}% of the year</text>

  <!-- Central Divider -->
  <g transform="translate(1080, 1300)">
    <line x1="-450" y1="0" x2="-30" y2="0" stroke="#C9B99A" stroke-width="2"/>
    <circle cx="0" cy="0" r="10" fill="#3D3D3D"/>
    <line x1="30" y1="0" x2="450" y2="0" stroke="#C9B99A" stroke-width="2"/>
  </g>

  <!-- Stats Grid - 2x2 with inline labels, each cell centered -->
  <!-- Row 1 -->
  <!-- Books Finished (left cell) -->
  <text x="650" y="1530" font-family="Georgia, 'Times New Roman', serif" font-size="190" font-weight="normal" fill="#3D3D3D" text-anchor="middle">{{BOOKS}} <tspan font-size="76" fill="#8C7B6B">books</tspan></text>

  <!-- Longest Streak (right cell) -->
  <text x="1510" y="1530" font-family="Georgia, 'Times New Roman', serif" font-size="190" font-weight="normal" fill="#3D3D3D" text-anchor="middle">{{STREAK}} <tspan font-size="76" fill="#8C7B6B">days streak</tspan></text>

  <!-- Row 2 -->
  <!-- Time Read (left cell) -->
  <text x="650" y="1820" font-family="Georgia, 'Times New Roman', serif" font-size="150" font-weight="normal" fill="#3D3D3D" text-anchor="middle">{{READING_TIME}} <tspan font-size="76" fill="#8C7B6B">read</tspan></text>

  <!-- Best Month (right cell) -->
  <text x="1510" y="1820" font-family="Georgia, 'Times New Roman', serif" font-size="150" font-weight="normal" fill="#3D3D3D" text-anchor="middle">{{BEST_MONTH}} <tspan font-size="76" fill="#8C7B6B">best</tspan></text>

  <!-- Footer in frame gap -->
  <text x="1080" y="2050" font-family="Georgia, 'Times New Roman', serif" font-size="48" font-style="italic" letter-spacing="2" fill="#A69888" text-anchor="middle">crafted with KoShelf</text>

</svg>
